<svg width="40" height="40" viewBox="0 0 40 40" fill="none" xmlns="http://www.w3.org/2000/svg">
<path d="M20 5C11.8683 5 5 11.8683 5 20C5 28.1317 11.8683 35 20 35C28.1317 35 35 28.1317 35 20C35 11.8683 28.1317 5 20 5ZM20 31.6667C13.6767 31.6667 8.33333 26.3233 8.33333 20C8.33333 13.6767 13.6767 8.33333 20 8.33333C26.3233 8.33333 31.6667 13.6767 31.6667 20C31.6667 26.3233 26.3233 31.6667 20 31.6667Z" fill="white"/>
<path d="M21.6667 18.3333V11.6666H18.3334V18.3333V21.6666H21.6667H28.3334V18.3333H21.6667Z" fill="white"/>
</svg>
