<svg width="40" height="40" viewBox="0 0 40 40" fill="none" xmlns="http://www.w3.org/2000/svg">
<path d="M33.3334 11.6666H26.6667V6.66659C26.6667 4.82825 25.1717 3.33325 23.3334 3.33325H16.6667C14.8284 3.33325 13.3334 4.82825 13.3334 6.66659V14.9999H6.66671C4.82837 14.9999 3.33337 16.4949 3.33337 18.3333V33.3333C3.33337 34.2533 4.07837 34.9999 5.00004 34.9999H15H25H35C35.9217 34.9999 36.6667 34.2533 36.6667 33.3333V14.9999C36.6667 13.1616 35.1717 11.6666 33.3334 11.6666ZM6.66671 18.3333H13.3334V31.6666H6.66671V18.3333ZM16.6667 16.6666V6.66659H23.3334V13.3333V31.6666H16.6667V16.6666ZM33.3334 31.6666H26.6667V14.9999H33.3334V31.6666Z" fill="white"/>
</svg>
