<svg width="22" height="22" viewBox="0 0 22 22" fill="none" xmlns="http://www.w3.org/2000/svg">
<path d="M8.25 8.25H13.75V13.75H8.25V8.25Z" fill="#6FD04F"/>
<path d="M18.3334 5.49992C18.3334 4.48884 17.5111 3.66659 16.5 3.66659H14.6667V1.83325H12.8334V3.66659H9.16671V1.83325H7.33337V3.66659H5.50004C4.48896 3.66659 3.66671 4.48884 3.66671 5.49992V7.33325H1.83337V9.16659H3.66671V12.8333H1.83337V14.6666H3.66671V16.4999C3.66671 17.511 4.48896 18.3333 5.50004 18.3333H7.33337V20.1666H9.16671V18.3333H12.8334V20.1666H14.6667V18.3333H16.5C17.5111 18.3333 18.3334 17.511 18.3334 16.4999V14.6666H20.1667V12.8333H18.3334V9.16659H20.1667V7.33325H18.3334V5.49992ZM5.50004 16.4999V5.49992H16.5L16.5019 16.4999H5.50004Z" fill="#6FD04F"/>
</svg>
