<svg width="28" height="28" viewBox="0 0 28 28" fill="none" xmlns="http://www.w3.org/2000/svg">
<path d="M11.6667 3.5H4.66667C4.0215 3.5 3.5 4.0215 3.5 4.66667V11.6667C3.5 12.3118 4.0215 12.8333 4.66667 12.8333H11.6667C12.3118 12.8333 12.8333 12.3118 12.8333 11.6667V4.66667C12.8333 4.0215 12.3118 3.5 11.6667 3.5ZM10.5 10.5H5.83333V5.83333H10.5V10.5ZM23.3333 3.5H16.3333C15.6882 3.5 15.1667 4.0215 15.1667 4.66667V11.6667C15.1667 12.3118 15.6882 12.8333 16.3333 12.8333H23.3333C23.9785 12.8333 24.5 12.3118 24.5 11.6667V4.66667C24.5 4.0215 23.9785 3.5 23.3333 3.5ZM22.1667 10.5H17.5V5.83333H22.1667V10.5ZM11.6667 15.1667H4.66667C4.0215 15.1667 3.5 15.6882 3.5 16.3333V23.3333C3.5 23.9785 4.0215 24.5 4.66667 24.5H11.6667C12.3118 24.5 12.8333 23.9785 12.8333 23.3333V16.3333C12.8333 15.6882 12.3118 15.1667 11.6667 15.1667ZM10.5 22.1667H5.83333V17.5H10.5V22.1667ZM19.8333 15.1667C17.2597 15.1667 15.1667 17.2597 15.1667 19.8333C15.1667 22.407 17.2597 24.5 19.8333 24.5C22.407 24.5 24.5 22.407 24.5 19.8333C24.5 17.2597 22.407 15.1667 19.8333 15.1667ZM19.8333 22.1667C18.5465 22.1667 17.5 21.1202 17.5 19.8333C17.5 18.5465 18.5465 17.5 19.8333 17.5C21.1202 17.5 22.1667 18.5465 22.1667 19.8333C22.1667 21.1202 21.1202 22.1667 19.8333 22.1667Z" fill="#636F89"/>
</svg>
