<svg width="40" height="40" viewBox="0 0 40 40" fill="none" xmlns="http://www.w3.org/2000/svg">
<path d="M27.6734 18.4134C28.6801 16.6984 29.1267 14.7 28.9251 12.68C28.6267 9.70669 26.9667 7.07836 24.2534 5.28003L22.4117 8.0567C24.2767 9.29336 25.4117 11.055 25.6084 13.0134C25.7917 14.855 25.1417 16.67 23.8217 17.99L21.8351 19.9767L24.5317 20.7684C31.5851 22.835 31.6667 29.9284 31.6667 30H35.0001C35.0001 27.0184 33.4067 21.1917 27.6734 18.4134Z" fill="white"/>
<path d="M15.8334 20C19.51 20 22.5 17.01 22.5 13.3333C22.5 9.65663 19.51 6.66663 15.8334 6.66663C12.1567 6.66663 9.16671 9.65663 9.16671 13.3333C9.16671 17.01 12.1567 20 15.8334 20ZM15.8334 9.99996C17.6717 9.99996 19.1667 11.495 19.1667 13.3333C19.1667 15.1716 17.6717 16.6666 15.8334 16.6666C13.995 16.6666 12.5 15.1716 12.5 13.3333C12.5 11.495 13.995 9.99996 15.8334 9.99996ZM18.3334 21.6666H13.3334C7.81837 21.6666 3.33337 26.1516 3.33337 31.6666V33.3333H6.66671V31.6666C6.66671 27.99 9.65671 25 13.3334 25H18.3334C22.01 25 25 27.99 25 31.6666V33.3333H28.3334V31.6666C28.3334 26.1516 23.8484 21.6666 18.3334 21.6666Z" fill="white"/>
</svg>
