<svg width="40" height="40" viewBox="0 0 40 40" fill="none" xmlns="http://www.w3.org/2000/svg">
<path d="M34.895 12.5499C32.045 6.86492 26.3384 3.33325 20 3.33325C10.81 3.33325 3.33337 10.8099 3.33337 19.9999C3.33337 29.1899 10.81 36.6666 20 36.6666C26.3384 36.6666 32.045 33.1349 34.895 27.4499C35.2917 26.6583 35 25.6949 34.2334 25.2566L25.0284 19.9999L34.2317 14.7449C35 14.3049 35.2917 13.3416 34.895 12.5499ZM20.84 18.5533C20.32 18.8499 20 19.4016 20 19.9999C20 20.5983 20.32 21.1499 20.84 21.4466L31.1284 27.3216C28.675 31.0649 24.54 33.3333 20 33.3333C12.6484 33.3333 6.66671 27.3516 6.66671 19.9999C6.66671 12.6483 12.6484 6.66659 20 6.66659C24.54 6.66659 28.675 8.93492 31.1284 12.6766L20.84 18.5533Z" fill="white"/>
<path d="M19.1666 15C20.5473 15 21.6666 13.8807 21.6666 12.5C21.6666 11.1193 20.5473 10 19.1666 10C17.7859 10 16.6666 11.1193 16.6666 12.5C16.6666 13.8807 17.7859 15 19.1666 15Z" fill="white"/>
</svg>
