<svg width="40" height="40" viewBox="0 0 40 40" fill="none" xmlns="http://www.w3.org/2000/svg">
<path d="M20 10C16.385 10 13.4434 12.9417 13.4434 16.5567H16.7767C16.7767 14.7783 18.2234 13.3333 20 13.3333C21.7767 13.3333 23.2234 14.7783 23.2234 16.5567C23.2234 17.5533 22.4217 18.2767 21.1967 19.2667C20.7717 19.6117 20.37 19.94 20.045 20.265C18.3817 21.9267 18.3334 23.6917 18.3334 23.8883V25H21.6667L21.665 23.945C21.6667 23.9183 21.72 23.3017 22.4 22.6233C22.65 22.3733 22.965 22.1233 23.2917 21.86C24.59 20.8083 26.555 19.22 26.555 16.5567C26.5567 12.9417 23.615 10 20 10ZM18.3334 26.6667H21.6667V30H18.3334V26.6667Z" fill="white"/>
<path d="M20 3.33337C10.81 3.33337 3.33337 10.81 3.33337 20C3.33337 29.19 10.81 36.6667 20 36.6667C29.19 36.6667 36.6667 29.19 36.6667 20C36.6667 10.81 29.19 3.33337 20 3.33337ZM20 33.3334C12.6484 33.3334 6.66671 27.3517 6.66671 20C6.66671 12.6484 12.6484 6.66671 20 6.66671C27.3517 6.66671 33.3334 12.6484 33.3334 20C33.3334 27.3517 27.3517 33.3334 20 33.3334Z" fill="white"/>
</svg>
