<svg width="22" height="22" viewBox="0 0 22 22" fill="none" xmlns="http://www.w3.org/2000/svg">
<path d="M11 3.66675C8.47271 3.66675 6.41663 5.72283 6.41663 8.25008H8.24996C8.24996 6.73391 9.48379 5.50008 11 5.50008C12.5161 5.50008 13.75 6.73391 13.75 8.25008C13.75 9.23 13.3338 9.593 12.3924 10.3172C12.0422 10.5867 11.6471 10.891 11.2685 11.2687C10.0659 12.4704 10.0787 13.6557 10.0833 13.7501V15.5834H11.9166V13.7418C11.9166 13.7198 11.9377 13.1909 12.5647 12.5648C12.858 12.2715 13.1899 12.0167 13.5098 11.7701C14.4815 11.0221 15.5833 10.1751 15.5833 8.25008C15.5833 5.72283 13.5272 3.66675 11 3.66675ZM10.0833 16.5001H11.9166V18.3334H10.0833V16.5001Z" fill="white"/>
</svg>
