<svg width="41" height="41" viewBox="0 0 41 41" fill="none" xmlns="http://www.w3.org/2000/svg">
<path d="M9.17708 37.6056H32.5104C34.3487 37.6056 35.8438 36.1106 35.8438 34.2722V15.9389C35.8438 15.0172 35.0987 14.2722 34.1771 14.2722H29.1771V12.6056C29.1771 8.01055 25.4387 4.27222 20.8438 4.27222C16.2487 4.27222 12.5104 8.01055 12.5104 12.6056V14.2722H7.51042C6.58875 14.2722 5.84375 15.0172 5.84375 15.9389V34.2722C5.84375 36.1106 7.33875 37.6056 9.17708 37.6056ZM15.8438 12.6056C15.8438 9.84888 18.0871 7.60555 20.8438 7.60555C23.6004 7.60555 25.8438 9.84888 25.8438 12.6056V14.2722H15.8438V12.6056ZM9.17708 17.6056H12.5104V20.9389H15.8438V17.6056H25.8438V20.9389H29.1771V17.6056H32.5104L32.5138 34.2722H9.17708V17.6056Z" fill="white"/>
</svg>
