<svg width="32" height="32" viewBox="0 0 32 32" fill="none" xmlns="http://www.w3.org/2000/svg">
<path d="M27.9933 9.20011C27.948 8.74411 27.672 8.34411 27.2627 8.14011L16.596 2.80677C16.2213 2.61877 15.7787 2.61877 15.4027 2.80677L4.736 8.14011C4.328 8.34544 4.052 8.74544 4.00667 9.20011C3.992 9.34277 2.72534 23.5561 15.4587 29.2188C15.6307 29.2961 15.8147 29.3334 16 29.3334C16.1853 29.3334 16.3693 29.2961 16.5413 29.2188C29.2747 23.5561 28.008 9.34411 27.9933 9.20011ZM16 26.5294V16.0001H7.34667C6.65601 13.4801 6.59201 11.2734 6.62134 10.1801L16 5.49077V16.0001H24.6133C23.6013 19.6534 21.2827 23.9721 16 26.5294Z" fill="#575E78"/>
</svg>
