<svg width="18" height="18" viewBox="0 0 18 18" fill="none" xmlns="http://www.w3.org/2000/svg">
<path d="M4.88705 10.7423L3.76955 15.5812C3.70055 15.8805 3.82055 16.1918 4.07405 16.3665C4.2023 16.455 4.3508 16.5 4.50005 16.5C4.6448 16.5 4.7903 16.458 4.9163 16.374L9.00005 13.6515L13.0838 16.374C13.3448 16.548 13.6876 16.5413 13.9426 16.356C14.1961 16.1708 14.3078 15.846 14.2216 15.5445L12.8498 10.7445L16.2518 7.683C16.4746 7.482 16.5563 7.1685 16.4603 6.885C16.3636 6.6015 16.1078 6.402 15.8093 6.378L11.5336 6.0375L9.6833 1.94175C9.56255 1.6725 9.2948 1.5 9.00005 1.5C8.7053 1.5 8.43755 1.6725 8.3168 1.94175L6.46655 6.0375L2.1908 6.37725C1.8968 6.4005 1.64405 6.59325 1.54505 6.87C1.44455 7.14675 1.51655 7.4565 1.72655 7.662L4.88705 10.7423ZM7.0268 7.49775C7.29905 7.476 7.53905 7.308 7.6508 7.05825L9.00005 4.0725L10.3493 7.05825C10.4611 7.308 10.7011 7.476 10.9733 7.49775L13.9523 7.734L11.4991 9.942C11.2861 10.134 11.2013 10.4295 11.2793 10.7055L12.2191 13.9943L9.41705 12.126C9.16505 11.9572 8.8373 11.9572 8.5853 12.126L5.6573 14.0782L6.4448 10.6688C6.5033 10.4138 6.4253 10.146 6.2378 9.96375L3.9593 7.74225L7.0268 7.49775Z" fill="#FFDA18"/>
</svg>
