<svg width="155" height="50" viewBox="0 0 155 50" fill="none" xmlns="http://www.w3.org/2000/svg">
<rect x="80" width="35" height="50" rx="4" fill="#252A3C"/>
<path d="M96.9804 36.32C94.143 36.32 92.0204 35.5307 90.6124 33.952C89.2257 32.3733 88.4684 30.304 88.3404 27.744C88.319 27.168 88.3084 26.1867 88.3084 24.8C88.3084 23.392 88.319 22.3893 88.3404 21.792C88.447 19.2747 89.215 17.2267 90.6444 15.648C92.0737 14.0693 94.1857 13.28 96.9804 13.28C99.7964 13.28 101.919 14.0693 103.348 15.648C104.778 17.2267 105.535 19.2747 105.62 21.792C105.663 22.3893 105.684 23.392 105.684 24.8C105.684 26.1867 105.663 27.168 105.62 27.744C105.514 30.304 104.756 32.3733 103.348 33.952C101.962 35.5307 99.839 36.32 96.9804 36.32ZM96.9804 32.64C98.3244 32.64 99.327 32.2027 99.9884 31.328C100.65 30.432 101.002 29.184 101.044 27.584C101.087 26.3467 101.108 25.408 101.108 24.768C101.108 24.064 101.087 23.136 101.044 21.984C101.002 20.4053 100.65 19.168 99.9884 18.272C99.327 17.376 98.3244 16.928 96.9804 16.928C95.6577 16.928 94.655 17.376 93.9724 18.272C93.311 19.168 92.959 20.4053 92.9164 21.984C92.895 22.56 92.8844 23.488 92.8844 24.768C92.8844 26.0267 92.895 26.9653 92.9164 27.584C92.959 29.184 93.311 30.432 93.9724 31.328C94.655 32.2027 95.6577 32.64 96.9804 32.64Z" fill="white"/>
<rect x="40" width="35" height="50" rx="4" fill="#252A3C"/>
<path d="M56.9804 36.32C54.143 36.32 52.0204 35.5307 50.6124 33.952C49.2257 32.3733 48.4684 30.304 48.3404 27.744C48.319 27.168 48.3084 26.1867 48.3084 24.8C48.3084 23.392 48.319 22.3893 48.3404 21.792C48.447 19.2747 49.215 17.2267 50.6444 15.648C52.0737 14.0693 54.1857 13.28 56.9804 13.28C59.7964 13.28 61.919 14.0693 63.3484 15.648C64.7777 17.2267 65.535 19.2747 65.6204 21.792C65.663 22.3893 65.6844 23.392 65.6844 24.8C65.6844 26.1867 65.663 27.168 65.6204 27.744C65.5137 30.304 64.7564 32.3733 63.3484 33.952C61.9617 35.5307 59.839 36.32 56.9804 36.32ZM56.9804 32.64C58.3244 32.64 59.327 32.2027 59.9884 31.328C60.6497 30.432 61.0017 29.184 61.0444 27.584C61.087 26.3467 61.1084 25.408 61.1084 24.768C61.1084 24.064 61.087 23.136 61.0444 21.984C61.0017 20.4053 60.6497 19.168 59.9884 18.272C59.327 17.376 58.3244 16.928 56.9804 16.928C55.6577 16.928 54.655 17.376 53.9724 18.272C53.311 19.168 52.959 20.4053 52.9164 21.984C52.895 22.56 52.8844 23.488 52.8844 24.768C52.8844 26.0267 52.895 26.9653 52.9164 27.584C52.959 29.184 53.311 30.432 53.9724 31.328C54.655 32.2027 55.6577 32.64 56.9804 32.64Z" fill="white"/>
<rect width="35" height="50" rx="4" fill="#252A3C"/>
<path d="M17.3739 36.32C15.4965 36.32 13.8965 36.0213 12.5739 35.424C11.2725 34.8267 10.2912 34.08 9.62988 33.184C8.98988 32.2667 8.64854 31.328 8.60588 30.368C8.60588 30.176 8.66988 30.0267 8.79788 29.92C8.94721 29.792 9.11788 29.728 9.30988 29.728H12.1899C12.6592 29.728 12.9685 29.9413 13.1179 30.368C13.5872 31.904 15.0165 32.672 17.4059 32.672C18.7072 32.672 19.7312 32.3733 20.4779 31.776C21.2245 31.1573 21.5979 30.2827 21.5979 29.152C21.5979 27.0187 20.2645 25.952 17.5979 25.952H14.3019C14.0672 25.952 13.8752 25.8773 13.7259 25.728C13.5765 25.5787 13.5019 25.3973 13.5019 25.184V23.84C13.5019 23.4987 13.6512 23.1787 13.9499 22.88L19.6779 17.28H10.5259C10.3125 17.28 10.1312 17.2053 9.98188 17.056C9.83254 16.9067 9.75788 16.7253 9.75788 16.512V14.4C9.75788 14.1653 9.82188 13.9733 9.94988 13.824C10.0992 13.6747 10.2912 13.6 10.5259 13.6H24.2539C24.4885 13.6 24.6805 13.6747 24.8299 13.824C24.9792 13.9733 25.0539 14.1653 25.0539 14.4V16.32C25.0539 16.64 24.9152 16.9387 24.6379 17.216L19.1019 22.912L19.4859 22.944C21.5339 23.1147 23.1552 23.7333 24.3499 24.8C25.5659 25.8667 26.1739 27.392 26.1739 29.376C26.1739 30.784 25.7899 32.0107 25.0219 33.056C24.2752 34.1013 23.2299 34.912 21.8859 35.488C20.5632 36.0427 19.0592 36.32 17.3739 36.32Z" fill="white"/>
<path d="M136.25 21.25H143.75V28.75H136.25V21.25Z" fill="#6FD04F"/>
<path d="M150 17.5C150 16.1212 148.879 15 147.5 15H145V12.5H142.5V15H137.5V12.5H135V15H132.5C131.121 15 130 16.1212 130 17.5V20H127.5V22.5H130V27.5H127.5V30H130V32.5C130 33.8787 131.121 35 132.5 35H135V37.5H137.5V35H142.5V37.5H145V35H147.5C148.879 35 150 33.8787 150 32.5V30H152.5V27.5H150V22.5H152.5V20H150V17.5ZM132.5 32.5V17.5H147.5L147.503 32.5H132.5Z" fill="#6FD04F"/>
</svg>
