<svg width="352" height="68" viewBox="0 0 352 68" fill="none" xmlns="http://www.w3.org/2000/svg">
<path d="M334.752 67H5.86161C3.34321 67 1.45139 64.7007 1.93653 62.2295L13.3228 4.22945C13.6911 2.3532 15.3358 1 17.2479 1H346.138C348.657 1 350.549 3.29932 350.063 5.77055L338.677 63.7705C338.309 65.6468 336.664 67 334.752 67Z" stroke="#292E40" stroke-width="2"/>
<path d="M89.0302 49C88.8969 49 88.7836 48.9533 88.6902 48.86C88.5969 48.7667 88.5502 48.6533 88.5502 48.52V38.16L85.5102 40.5C85.4302 40.5667 85.3369 40.6 85.2302 40.6C85.0702 40.6 84.9369 40.5267 84.8302 40.38L83.9902 39.3C83.9236 39.1933 83.8902 39.0933 83.8902 39C83.8902 38.84 83.9636 38.7067 84.1102 38.6L88.5902 35.14C88.7102 35.0467 88.8769 35 89.0902 35H90.8502C90.9969 35 91.1102 35.0467 91.1902 35.14C91.2836 35.22 91.3302 35.3333 91.3302 35.48V48.52C91.3302 48.6533 91.2836 48.7667 91.1902 48.86C91.1102 48.9533 90.9969 49 90.8502 49H89.0302ZM94.128 49C93.9947 49 93.8814 48.9533 93.788 48.86C93.6947 48.7667 93.648 48.6533 93.648 48.52V47.5C93.648 47.14 93.8147 46.8267 94.148 46.56L97.308 43.42C98.6814 42.34 99.6347 41.5 100.168 40.9C100.715 40.2867 100.988 39.6867 100.988 39.1C100.988 38.4733 100.815 37.98 100.468 37.62C100.135 37.26 99.628 37.08 98.948 37.08C98.2814 37.08 97.7547 37.28 97.368 37.68C96.9814 38.0667 96.7414 38.5733 96.648 39.2C96.608 39.36 96.5347 39.48 96.428 39.56C96.3214 39.6267 96.2014 39.66 96.068 39.66H94.288C94.168 39.66 94.068 39.62 93.988 39.54C93.908 39.46 93.868 39.3667 93.868 39.26C93.8947 38.4733 94.108 37.74 94.508 37.06C94.908 36.3667 95.488 35.8133 96.248 35.4C97.008 34.9733 97.9014 34.76 98.928 34.76C99.9947 34.76 100.895 34.9467 101.628 35.32C102.375 35.68 102.935 36.18 103.308 36.82C103.681 37.46 103.868 38.1867 103.868 39C103.868 39.8933 103.615 40.7 103.108 41.42C102.615 42.14 101.855 42.9133 100.828 43.74L97.988 46.62H103.688C103.835 46.62 103.948 46.6667 104.028 46.76C104.121 46.84 104.168 46.9533 104.168 47.1V48.52C104.168 48.6533 104.121 48.7667 104.028 48.86C103.948 48.9533 103.835 49 103.688 49H94.128ZM117.601 49C117.468 49 117.355 48.9533 117.261 48.86C117.168 48.7667 117.121 48.6533 117.121 48.52V45.12C116.468 45.6933 115.508 45.98 114.241 45.98C112.988 45.98 112.041 45.6867 111.401 45.1C110.761 44.5 110.441 43.5667 110.441 42.3V39.08C110.441 38.9333 110.488 38.82 110.581 38.74C110.675 38.6467 110.788 38.6 110.921 38.6H112.641C112.775 38.6 112.888 38.6467 112.981 38.74C113.075 38.8333 113.121 38.9467 113.121 39.08V42.16C113.121 42.6933 113.261 43.08 113.541 43.32C113.835 43.5467 114.301 43.66 114.941 43.66C116.395 43.66 117.121 43.2667 117.121 42.48V39.08C117.121 38.9333 117.168 38.82 117.261 38.74C117.355 38.6467 117.468 38.6 117.601 38.6H119.401C119.535 38.6 119.648 38.6467 119.741 38.74C119.835 38.8333 119.881 38.9467 119.881 39.08V48.52C119.881 48.6533 119.835 48.7667 119.741 48.86C119.648 48.9533 119.535 49 119.401 49H117.601ZM125.604 49.2C124.924 49.2 124.297 49.0667 123.724 48.8C123.164 48.52 122.717 48.1467 122.384 47.68C122.064 47.2133 121.904 46.7 121.904 46.14C121.904 45.2333 122.27 44.5 123.004 43.94C123.737 43.38 124.744 43 126.024 42.8L128.764 42.4V41.98C128.764 41.3933 128.617 40.9533 128.324 40.66C128.03 40.3667 127.557 40.22 126.904 40.22C126.464 40.22 126.104 40.3067 125.824 40.48C125.557 40.64 125.344 40.8 125.184 40.96C125.024 41.1333 124.917 41.2467 124.864 41.3C124.81 41.46 124.71 41.54 124.564 41.54H123.024C122.904 41.54 122.797 41.5 122.704 41.42C122.624 41.34 122.584 41.2333 122.584 41.1C122.597 40.7667 122.757 40.3867 123.064 39.96C123.384 39.5333 123.87 39.1667 124.524 38.86C125.177 38.5533 125.977 38.4 126.924 38.4C128.497 38.4 129.644 38.7533 130.364 39.46C131.084 40.1667 131.444 41.0933 131.444 42.24V48.52C131.444 48.6533 131.397 48.7667 131.304 48.86C131.224 48.9533 131.11 49 130.964 49H129.344C129.21 49 129.097 48.9533 129.004 48.86C128.91 48.7667 128.864 48.6533 128.864 48.52V47.74C128.57 48.1667 128.15 48.52 127.604 48.8C127.07 49.0667 126.404 49.2 125.604 49.2ZM126.284 47.3C127.017 47.3 127.617 47.06 128.084 46.58C128.55 46.1 128.784 45.4 128.784 44.48V44.06L126.784 44.38C126.01 44.5 125.424 44.6933 125.024 44.96C124.637 45.2267 124.444 45.5533 124.444 45.94C124.444 46.3667 124.624 46.7 124.984 46.94C125.344 47.18 125.777 47.3 126.284 47.3ZM138.509 49.2C137.043 49.2 135.869 48.7933 134.989 47.98C134.123 47.1667 133.663 46.04 133.609 44.6L133.589 43.8L133.609 43C133.663 41.56 134.123 40.4333 134.989 39.62C135.869 38.8067 137.043 38.4 138.509 38.4C139.549 38.4 140.429 38.5867 141.149 38.96C141.883 39.3333 142.423 39.7933 142.769 40.34C143.129 40.8733 143.323 41.38 143.349 41.86C143.363 41.9933 143.316 42.1067 143.209 42.2C143.116 42.2933 143.003 42.34 142.869 42.34H141.109C140.976 42.34 140.869 42.3133 140.789 42.26C140.723 42.1933 140.656 42.0867 140.589 41.94C140.389 41.42 140.123 41.0467 139.789 40.82C139.469 40.5933 139.056 40.48 138.549 40.48C137.869 40.48 137.336 40.7 136.949 41.14C136.563 41.5667 136.356 42.22 136.329 43.1L136.309 43.84L136.329 44.5C136.383 46.2467 137.123 47.12 138.549 47.12C139.069 47.12 139.489 47.0067 139.809 46.78C140.129 46.5533 140.389 46.18 140.589 45.66C140.656 45.5133 140.723 45.4133 140.789 45.36C140.869 45.2933 140.976 45.26 141.109 45.26H142.869C143.003 45.26 143.116 45.3067 143.209 45.4C143.316 45.4933 143.363 45.6067 143.349 45.74C143.323 46.2067 143.136 46.7067 142.789 47.24C142.443 47.7733 141.909 48.2333 141.189 48.62C140.469 49.0067 139.576 49.2 138.509 49.2ZM150.035 49.2C148.475 49.2 147.269 48.8 146.415 48C145.562 47.1867 145.102 46.08 145.035 44.68L145.015 43.8L145.035 42.92C145.102 41.5333 145.569 40.4333 146.435 39.62C147.302 38.8067 148.502 38.4 150.035 38.4C151.569 38.4 152.769 38.8067 153.635 39.62C154.502 40.4333 154.969 41.5333 155.035 42.92C155.049 43.08 155.055 43.3733 155.055 43.8C155.055 44.2267 155.049 44.52 155.035 44.68C154.969 46.08 154.509 47.1867 153.655 48C152.802 48.8 151.595 49.2 150.035 49.2ZM150.035 47.22C150.742 47.22 151.289 47 151.675 46.56C152.062 46.1067 152.275 45.4467 152.315 44.58C152.329 44.4467 152.335 44.1867 152.335 43.8C152.335 43.4133 152.329 43.1533 152.315 43.02C152.275 42.1533 152.062 41.5 151.675 41.06C151.289 40.6067 150.742 40.38 150.035 40.38C149.329 40.38 148.782 40.6067 148.395 41.06C148.009 41.5 147.795 42.1533 147.755 43.02L147.735 43.8L147.755 44.58C147.795 45.4467 148.009 46.1067 148.395 46.56C148.782 47 149.329 47.22 150.035 47.22ZM157.751 49C157.618 49 157.505 48.9533 157.411 48.86C157.318 48.7667 157.271 48.6533 157.271 48.52V39.08C157.271 38.9467 157.318 38.8333 157.411 38.74C157.505 38.6467 157.618 38.6 157.751 38.6H162.191C163.565 38.6 164.598 38.8533 165.291 39.36C165.998 39.8667 166.351 40.5733 166.351 41.48C166.351 42.0133 166.251 42.44 166.051 42.76C165.851 43.0667 165.551 43.34 165.151 43.58C165.618 43.7933 165.978 44.1133 166.231 44.54C166.498 44.9667 166.631 45.4467 166.631 45.98C166.631 46.9533 166.271 47.7 165.551 48.22C164.831 48.74 163.785 49 162.411 49H157.751ZM162.151 42.84C162.685 42.84 163.105 42.7333 163.411 42.52C163.718 42.2933 163.871 41.9667 163.871 41.54C163.871 41.1267 163.725 40.8333 163.431 40.66C163.138 40.4867 162.711 40.4 162.151 40.4H159.831V42.84H162.151ZM162.231 47.2C162.778 47.2 163.205 47.1 163.511 46.9C163.831 46.6867 163.991 46.3733 163.991 45.96C163.991 45.52 163.845 45.2 163.551 45C163.271 44.8 162.831 44.7 162.231 44.7H159.831V47.2H162.231ZM184.652 49C184.519 49 184.405 48.9533 184.312 48.86C184.219 48.7667 184.172 48.6533 184.172 48.52V45.96H177.832C177.699 45.96 177.585 45.9133 177.492 45.82C177.399 45.7267 177.352 45.6133 177.352 45.48V44.12C177.352 43.9067 177.425 43.7067 177.572 43.52L183.472 35.34C183.539 35.2333 183.639 35.1533 183.772 35.1C183.905 35.0333 184.052 35 184.212 35H186.392C186.539 35 186.652 35.0467 186.732 35.14C186.825 35.22 186.872 35.3333 186.872 35.48V43.6H188.652C188.799 43.6 188.919 43.6467 189.012 43.74C189.105 43.82 189.152 43.9333 189.152 44.08V45.48C189.152 45.6133 189.105 45.7267 189.012 45.82C188.919 45.9133 188.805 45.96 188.672 45.96H186.872V48.52C186.872 48.6533 186.825 48.7667 186.732 48.86C186.652 48.9533 186.539 49 186.392 49H184.652ZM184.232 43.68V37.9L180.132 43.68H184.232ZM196.359 49.2C194.585 49.2 193.259 48.7067 192.379 47.72C191.512 46.7333 191.039 45.44 190.959 43.84C190.945 43.48 190.939 42.8667 190.939 42C190.939 41.12 190.945 40.4933 190.959 40.12C191.025 38.5467 191.505 37.2667 192.399 36.28C193.292 35.2933 194.612 34.8 196.359 34.8C198.119 34.8 199.445 35.2933 200.339 36.28C201.232 37.2667 201.705 38.5467 201.759 40.12C201.785 40.4933 201.799 41.12 201.799 42C201.799 42.8667 201.785 43.48 201.759 43.84C201.692 45.44 201.219 46.7333 200.339 47.72C199.472 48.7067 198.145 49.2 196.359 49.2ZM196.359 46.9C197.199 46.9 197.825 46.6267 198.239 46.08C198.652 45.52 198.872 44.74 198.899 43.74C198.925 42.9667 198.939 42.38 198.939 41.98C198.939 41.54 198.925 40.96 198.899 40.24C198.872 39.2533 198.652 38.48 198.239 37.92C197.825 37.36 197.199 37.08 196.359 37.08C195.532 37.08 194.905 37.36 194.479 37.92C194.065 38.48 193.845 39.2533 193.819 40.24C193.805 40.6 193.799 41.18 193.799 41.98C193.799 42.7667 193.805 43.3533 193.819 43.74C193.845 44.74 194.065 45.52 194.479 46.08C194.905 46.6267 195.532 46.9 196.359 46.9ZM219.774 38.6C219.88 38.6 219.974 38.64 220.054 38.72C220.147 38.8 220.194 38.8867 220.194 38.98V48.58C220.194 48.7 220.154 48.8 220.074 48.88C219.994 48.96 219.887 49 219.754 49H218.034C217.9 49 217.794 48.96 217.714 48.88C217.647 48.8 217.614 48.7 217.614 48.58V42.98L215.474 46.92C215.38 47.08 215.287 47.2 215.194 47.28C215.114 47.36 214.994 47.4 214.834 47.4H214.174C214.027 47.4 213.907 47.36 213.814 47.28C213.72 47.2 213.634 47.08 213.554 46.92L211.414 43.06V48.58C211.414 48.7 211.374 48.8 211.294 48.88C211.214 48.96 211.114 49 210.994 49H209.274C209.14 49 209.034 48.96 208.954 48.88C208.874 48.8 208.834 48.7 208.834 48.58V38.98C208.834 38.8867 208.874 38.8 208.954 38.72C209.034 38.64 209.127 38.6 209.234 38.6H210.914C211.14 38.6 211.314 38.7133 211.434 38.94L214.514 44.54L217.594 38.94C217.714 38.7133 217.887 38.6 218.114 38.6H219.774ZM232.376 38.6C232.496 38.6 232.603 38.6467 232.696 38.74C232.79 38.82 232.836 38.92 232.836 39.04V48.52C232.836 48.6533 232.79 48.7667 232.696 48.86C232.603 48.9533 232.49 49 232.356 49H230.696C230.563 49 230.45 48.9533 230.356 48.86C230.263 48.7667 230.216 48.6533 230.216 48.52V42.1L225.416 48.68C225.296 48.8933 225.116 49 224.876 49H223.356C223.236 49 223.13 48.96 223.036 48.88C222.943 48.7867 222.896 48.6733 222.896 48.54V39.08C222.896 38.9467 222.943 38.8333 223.036 38.74C223.13 38.6467 223.243 38.6 223.376 38.6H225.036C225.183 38.6 225.296 38.6467 225.376 38.74C225.47 38.82 225.516 38.9333 225.516 39.08V45.52L230.316 38.92C230.463 38.7067 230.643 38.6 230.856 38.6H232.376ZM235.837 49C235.704 49 235.59 48.9533 235.497 48.86C235.404 48.7667 235.357 48.6533 235.357 48.52V39.08C235.357 38.9467 235.404 38.8333 235.497 38.74C235.59 38.6467 235.704 38.6 235.837 38.6H237.497C237.644 38.6 237.757 38.6467 237.837 38.74C237.93 38.82 237.977 38.9333 237.977 39.08V42.66H242.497V39.08C242.497 38.9333 242.544 38.82 242.637 38.74C242.73 38.6467 242.844 38.6 242.977 38.6H244.637C244.784 38.6 244.897 38.6467 244.977 38.74C245.07 38.82 245.117 38.9333 245.117 39.08V48.52C245.117 48.6533 245.07 48.7667 244.977 48.86C244.897 48.9533 244.784 49 244.637 49H242.977C242.844 49 242.73 48.9533 242.637 48.86C242.544 48.7667 242.497 48.6533 242.497 48.52V44.76H237.977V48.52C237.977 48.6533 237.93 48.7667 237.837 48.86C237.757 48.9533 237.644 49 237.497 49H235.837ZM257.038 38.6C257.145 38.6 257.238 38.64 257.318 38.72C257.411 38.8 257.458 38.8933 257.458 39C257.458 39.0933 257.431 39.2 257.378 39.32L253.578 48.4C253.165 49.3867 252.791 50.1733 252.458 50.76C252.125 51.3467 251.711 51.8333 251.218 52.22C250.725 52.6067 250.131 52.8 249.438 52.8H248.558C248.425 52.8 248.311 52.7533 248.218 52.66C248.125 52.58 248.078 52.4667 248.078 52.32V51.18C248.078 51.0467 248.125 50.9333 248.218 50.84C248.311 50.7467 248.425 50.7 248.558 50.7H249.178C249.578 50.7 249.878 50.5867 250.078 50.36C250.278 50.1333 250.518 49.68 250.798 49L251.018 48.46L247.078 39.32C247.025 39.2 246.998 39.1067 246.998 39.04C247.011 38.92 247.058 38.82 247.138 38.74C247.218 38.6467 247.318 38.6 247.438 38.6H249.038C249.278 38.6 249.451 38.7267 249.558 38.98L252.218 45.56L254.958 38.98C255.051 38.7267 255.238 38.6 255.518 38.6H257.038ZM262.404 49C262.271 49 262.158 48.9533 262.064 48.86C261.971 48.7667 261.924 48.6533 261.924 48.52V40.72H258.664C258.531 40.72 258.418 40.6733 258.324 40.58C258.231 40.4867 258.184 40.3667 258.184 40.22V39.08C258.184 38.9333 258.231 38.82 258.324 38.74C258.418 38.6467 258.531 38.6 258.664 38.6H267.744C267.891 38.6 268.011 38.6467 268.104 38.74C268.198 38.8333 268.244 38.9467 268.244 39.08V40.22C268.244 40.3533 268.198 40.4733 268.104 40.58C268.011 40.6733 267.891 40.72 267.744 40.72H264.504V48.52C264.504 48.6533 264.458 48.7667 264.364 48.86C264.284 48.9533 264.171 49 264.024 49H262.404Z" fill="white"/>
<path d="M124.429 24C124.341 24 124.269 23.972 124.213 23.916C124.165 23.86 124.141 23.788 124.141 23.7V15.9C124.141 15.812 124.169 15.74 124.225 15.684C124.281 15.628 124.353 15.6 124.441 15.6H125.521C125.609 15.6 125.677 15.628 125.725 15.684C125.781 15.74 125.809 15.812 125.809 15.9V21.408L129.757 15.792C129.845 15.664 129.961 15.6 130.105 15.6H131.101C131.189 15.6 131.257 15.628 131.305 15.684C131.361 15.74 131.389 15.812 131.389 15.9V23.712C131.389 23.792 131.361 23.86 131.305 23.916C131.257 23.972 131.189 24 131.101 24H130.021C129.933 24 129.861 23.976 129.805 23.928C129.749 23.872 129.721 23.8 129.721 23.712V18.312L125.785 23.808C125.737 23.872 125.689 23.92 125.641 23.952C125.593 23.984 125.525 24 125.437 24H124.429ZM136.498 24.12C135.394 24.12 134.538 23.836 133.93 23.268C133.33 22.7 133.01 21.9 132.97 20.868C132.962 20.652 132.958 20.3 132.958 19.812C132.958 19.316 132.962 18.956 132.97 18.732C133.01 17.708 133.334 16.912 133.942 16.344C134.558 15.768 135.41 15.48 136.498 15.48C137.21 15.48 137.83 15.604 138.358 15.852C138.886 16.092 139.294 16.424 139.582 16.848C139.87 17.264 140.022 17.736 140.038 18.264V18.288C140.038 18.352 140.01 18.408 139.954 18.456C139.906 18.496 139.85 18.516 139.786 18.516H138.646C138.55 18.516 138.478 18.496 138.43 18.456C138.382 18.416 138.342 18.34 138.31 18.228C138.182 17.724 137.97 17.372 137.674 17.172C137.378 16.964 136.982 16.86 136.486 16.86C135.334 16.86 134.734 17.504 134.686 18.792C134.678 19.008 134.674 19.34 134.674 19.788C134.674 20.236 134.678 20.576 134.686 20.808C134.734 22.096 135.334 22.74 136.486 22.74C136.982 22.74 137.378 22.636 137.674 22.428C137.978 22.22 138.19 21.868 138.31 21.372C138.334 21.26 138.37 21.184 138.418 21.144C138.474 21.104 138.55 21.084 138.646 21.084H139.786C139.858 21.084 139.918 21.108 139.966 21.156C140.022 21.204 140.046 21.264 140.038 21.336C140.022 21.864 139.87 22.34 139.582 22.764C139.294 23.18 138.886 23.512 138.358 23.76C137.83 24 137.21 24.12 136.498 24.12ZM143.597 24C143.517 24 143.449 23.972 143.393 23.916C143.337 23.86 143.309 23.792 143.309 23.712V17.076H141.089C141.009 17.076 140.941 17.048 140.885 16.992C140.829 16.936 140.801 16.868 140.801 16.788V15.9C140.801 15.812 140.825 15.74 140.873 15.684C140.929 15.628 141.001 15.6 141.089 15.6H147.209C147.297 15.6 147.369 15.628 147.425 15.684C147.481 15.74 147.509 15.812 147.509 15.9V16.788C147.509 16.868 147.481 16.936 147.425 16.992C147.369 17.048 147.297 17.076 147.209 17.076H145.001V23.712C145.001 23.792 144.973 23.86 144.917 23.916C144.861 23.972 144.789 24 144.701 24H143.597ZM149.015 24C148.935 24 148.867 23.972 148.811 23.916C148.755 23.86 148.727 23.792 148.727 23.712V15.9C148.727 15.812 148.751 15.74 148.799 15.684C148.855 15.628 148.927 15.6 149.015 15.6H154.295C154.383 15.6 154.455 15.628 154.511 15.684C154.567 15.74 154.595 15.812 154.595 15.9V16.692C154.595 16.78 154.567 16.852 154.511 16.908C154.455 16.956 154.383 16.98 154.295 16.98H150.347V19.104H154.031C154.119 19.104 154.191 19.132 154.247 19.188C154.303 19.236 154.331 19.304 154.331 19.392V20.136C154.331 20.224 154.303 20.296 154.247 20.352C154.191 20.4 154.119 20.424 154.031 20.424H150.347V22.62H154.391C154.479 22.62 154.551 22.648 154.607 22.704C154.663 22.76 154.691 22.832 154.691 22.92V23.712C154.691 23.8 154.663 23.872 154.607 23.928C154.551 23.976 154.479 24 154.391 24H149.015ZM162.9 23.592C162.924 23.624 162.936 23.668 162.936 23.724C162.936 23.796 162.908 23.86 162.852 23.916C162.804 23.972 162.74 24 162.66 24H161.424C161.328 24 161.256 23.984 161.208 23.952C161.16 23.912 161.112 23.86 161.064 23.796L159 20.496H157.86V23.712C157.86 23.792 157.832 23.86 157.776 23.916C157.728 23.972 157.66 24 157.572 24H156.48C156.4 24 156.332 23.972 156.276 23.916C156.22 23.86 156.192 23.792 156.192 23.712V15.9C156.192 15.812 156.216 15.74 156.264 15.684C156.32 15.628 156.392 15.6 156.48 15.6H157.572C157.66 15.6 157.728 15.628 157.776 15.684C157.832 15.74 157.86 15.812 157.86 15.9V18.996L158.916 19.008L160.86 15.816C160.94 15.672 161.084 15.6 161.292 15.6H162.48C162.56 15.6 162.62 15.624 162.66 15.672C162.708 15.72 162.732 15.78 162.732 15.852C162.732 15.884 162.716 15.932 162.684 15.996L160.416 19.656L162.9 23.592ZM163.715 24C163.651 24 163.591 23.976 163.535 23.928C163.487 23.88 163.463 23.82 163.463 23.748L163.487 23.64L166.379 15.9C166.435 15.7 166.575 15.6 166.799 15.6H168.107C168.315 15.6 168.455 15.7 168.527 15.9L171.419 23.64C171.427 23.664 171.431 23.7 171.431 23.748C171.431 23.82 171.407 23.88 171.359 23.928C171.311 23.976 171.255 24 171.191 24H170.147C170.043 24 169.963 23.976 169.907 23.928C169.851 23.88 169.815 23.828 169.799 23.772L169.235 22.308H165.671L165.107 23.772C165.043 23.924 164.927 24 164.759 24H163.715ZM168.815 20.928L167.447 17.22L166.091 20.928H168.815ZM172.839 24C172.759 24 172.691 23.972 172.635 23.916C172.579 23.86 172.551 23.792 172.551 23.712V15.9C172.551 15.812 172.575 15.74 172.623 15.684C172.679 15.628 172.751 15.6 172.839 15.6H178.119C178.207 15.6 178.279 15.628 178.335 15.684C178.391 15.74 178.419 15.812 178.419 15.9V16.692C178.419 16.78 178.391 16.852 178.335 16.908C178.279 16.956 178.207 16.98 178.119 16.98H174.171V19.104H177.855C177.943 19.104 178.015 19.132 178.071 19.188C178.127 19.236 178.155 19.304 178.155 19.392V20.136C178.155 20.224 178.127 20.296 178.071 20.352C178.015 20.4 177.943 20.424 177.855 20.424H174.171V22.62H178.215C178.303 22.62 178.375 22.648 178.431 22.704C178.487 22.76 178.515 22.832 178.515 22.92V23.712C178.515 23.8 178.487 23.872 178.431 23.928C178.375 23.976 178.303 24 178.215 24H172.839ZM182.152 24C182.072 24 182.004 23.972 181.948 23.916C181.892 23.86 181.864 23.792 181.864 23.712V17.076H179.644C179.564 17.076 179.496 17.048 179.44 16.992C179.384 16.936 179.356 16.868 179.356 16.788V15.9C179.356 15.812 179.38 15.74 179.428 15.684C179.484 15.628 179.556 15.6 179.644 15.6H185.764C185.852 15.6 185.924 15.628 185.98 15.684C186.036 15.74 186.064 15.812 186.064 15.9V16.788C186.064 16.868 186.036 16.936 185.98 16.992C185.924 17.048 185.852 17.076 185.764 17.076H183.556V23.712C183.556 23.792 183.528 23.86 183.472 23.916C183.416 23.972 183.344 24 183.256 24H182.152ZM194.848 24C194.768 24 194.7 23.972 194.644 23.916C194.588 23.86 194.56 23.792 194.56 23.712V20.88C194.384 21.056 194.112 21.192 193.744 21.288C193.376 21.376 193 21.42 192.616 21.42C191.632 21.42 190.9 21.184 190.42 20.712C189.94 20.24 189.7 19.532 189.7 18.588V15.888C189.7 15.8 189.728 15.732 189.784 15.684C189.84 15.628 189.908 15.6 189.988 15.6H191.068C191.156 15.6 191.228 15.628 191.284 15.684C191.34 15.732 191.368 15.8 191.368 15.888V18.504C191.368 18.984 191.488 19.336 191.728 19.56C191.976 19.776 192.38 19.884 192.94 19.884C193.348 19.884 193.72 19.808 194.056 19.656C194.392 19.504 194.56 19.252 194.56 18.9V15.888C194.56 15.8 194.588 15.732 194.644 15.684C194.7 15.628 194.768 15.6 194.848 15.6H195.928C196.016 15.6 196.088 15.628 196.144 15.684C196.2 15.74 196.228 15.808 196.228 15.888V23.712C196.228 23.792 196.2 23.86 196.144 23.916C196.088 23.972 196.016 24 195.928 24H194.848ZM198.421 24C198.341 24 198.273 23.972 198.217 23.916C198.161 23.86 198.133 23.792 198.133 23.712V15.9C198.133 15.812 198.157 15.74 198.205 15.684C198.261 15.628 198.333 15.6 198.421 15.6H203.701C203.789 15.6 203.861 15.628 203.917 15.684C203.973 15.74 204.001 15.812 204.001 15.9V16.692C204.001 16.78 203.973 16.852 203.917 16.908C203.861 16.956 203.789 16.98 203.701 16.98H199.753V19.104H203.437C203.525 19.104 203.597 19.132 203.653 19.188C203.709 19.236 203.737 19.304 203.737 19.392V20.136C203.737 20.224 203.709 20.296 203.653 20.352C203.597 20.4 203.525 20.424 203.437 20.424H199.753V22.62H203.797C203.885 22.62 203.957 22.648 204.013 22.704C204.069 22.76 204.097 22.832 204.097 22.92V23.712C204.097 23.8 204.069 23.872 204.013 23.928C203.957 23.976 203.885 24 203.797 24H198.421ZM205.886 24C205.806 24 205.738 23.972 205.682 23.916C205.626 23.86 205.598 23.792 205.598 23.712V15.9C205.598 15.812 205.622 15.74 205.67 15.684C205.726 15.628 205.798 15.6 205.886 15.6H209.102C210.062 15.6 210.818 15.828 211.37 16.284C211.922 16.732 212.198 17.392 212.198 18.264C212.198 19.136 211.922 19.796 211.37 20.244C210.826 20.684 210.07 20.904 209.102 20.904H207.314V23.712C207.314 23.792 207.286 23.86 207.23 23.916C207.182 23.972 207.114 24 207.026 24H205.886ZM209.042 19.572C209.506 19.572 209.862 19.464 210.11 19.248C210.358 19.024 210.482 18.696 210.482 18.264C210.482 17.848 210.362 17.524 210.122 17.292C209.882 17.052 209.522 16.932 209.042 16.932H207.29V19.572H209.042ZM213.796 24C213.716 24 213.648 23.972 213.592 23.916C213.536 23.86 213.508 23.792 213.508 23.712V15.9C213.508 15.812 213.532 15.74 213.58 15.684C213.636 15.628 213.708 15.6 213.796 15.6H219.076C219.164 15.6 219.236 15.628 219.292 15.684C219.348 15.74 219.376 15.812 219.376 15.9V16.692C219.376 16.78 219.348 16.852 219.292 16.908C219.236 16.956 219.164 16.98 219.076 16.98H215.128V19.104H218.812C218.9 19.104 218.972 19.132 219.028 19.188C219.084 19.236 219.112 19.304 219.112 19.392V20.136C219.112 20.224 219.084 20.296 219.028 20.352C218.972 20.4 218.9 20.424 218.812 20.424H215.128V22.62H219.172C219.26 22.62 219.332 22.648 219.388 22.704C219.444 22.76 219.472 22.832 219.472 22.92V23.712C219.472 23.8 219.444 23.872 219.388 23.928C219.332 23.976 219.26 24 219.172 24H213.796ZM223.817 24.12C223.113 24.12 222.517 24.02 222.029 23.82C221.549 23.612 221.181 23.34 220.925 23.004C220.677 22.66 220.533 22.288 220.493 21.888V21.864C220.493 21.8 220.517 21.748 220.565 21.708C220.613 21.668 220.673 21.648 220.745 21.648H221.825C221.993 21.648 222.109 21.728 222.173 21.888C222.269 22.152 222.453 22.364 222.725 22.524C222.997 22.676 223.349 22.752 223.781 22.752C224.285 22.752 224.697 22.644 225.017 22.428C225.345 22.212 225.509 21.92 225.509 21.552C225.509 21.168 225.365 20.872 225.077 20.664C224.797 20.448 224.401 20.34 223.889 20.34H223.025C222.945 20.34 222.877 20.312 222.821 20.256C222.765 20.2 222.737 20.128 222.737 20.04V19.344C222.737 19.256 222.765 19.184 222.821 19.128C222.877 19.072 222.945 19.044 223.025 19.044H223.853C224.285 19.044 224.625 18.952 224.873 18.768C225.129 18.584 225.257 18.308 225.257 17.94C225.257 17.612 225.121 17.352 224.849 17.16C224.585 16.96 224.241 16.86 223.817 16.86C223.385 16.86 223.033 16.936 222.761 17.088C222.497 17.232 222.333 17.448 222.269 17.736C222.237 17.816 222.197 17.876 222.149 17.916C222.109 17.948 222.045 17.964 221.957 17.964H220.841C220.769 17.964 220.705 17.94 220.649 17.892C220.601 17.844 220.581 17.784 220.589 17.712C220.645 17.064 220.941 16.532 221.477 16.116C222.021 15.692 222.809 15.48 223.841 15.48C224.481 15.48 225.033 15.588 225.497 15.804C225.969 16.012 226.329 16.296 226.577 16.656C226.825 17.008 226.949 17.392 226.949 17.808C226.949 18.176 226.873 18.516 226.721 18.828C226.577 19.14 226.337 19.392 226.001 19.584C226.417 19.792 226.725 20.076 226.925 20.436C227.125 20.788 227.225 21.176 227.225 21.6C227.225 22.096 227.085 22.536 226.805 22.92C226.525 23.296 226.129 23.592 225.617 23.808C225.105 24.016 224.505 24.12 223.817 24.12Z" fill="#FFDA18"/>
</svg>
