<svg width="28" height="24" viewBox="0 0 28 24" fill="none" xmlns="http://www.w3.org/2000/svg">
<path d="M22.5845 24H2.33566C1.10837 24 0.170592 22.9048 0.359487 21.6922L3.47484 1.69227C3.62656 0.718301 4.46529 0.000100187 5.45101 0.000100187H25.668C26.8941 0.000100187 27.8315 1.09314 27.6447 2.30485L24.5612 22.3047C24.4108 23.2801 23.5714 24 22.5845 24Z" fill="url(#paint0_linear)"/>
<path d="M22.5845 24H2.33566C1.10837 24 0.170592 22.9048 0.359487 21.6922L3.47484 1.69227C3.62656 0.718301 4.46529 0.000100187 5.45101 0.000100187H25.668C26.8941 0.000100187 27.8315 1.09314 27.6447 2.30485L24.5612 22.3047C24.4108 23.2801 23.5714 24 22.5845 24Z" fill="#6FD04F"/>
<path d="M12.1186 14.6377L9.23725 11.7563L8 12.9936L12.1186 17.1122L20.6122 8.6186L19.375 7.38135L12.1186 14.6377Z" fill="white"/>
<path fill-rule="evenodd" clip-rule="evenodd" d="M12.1186 14.6377L19.375 7.3813L20.6123 8.61855L12.1186 17.1122L8.00001 12.9936L9.23726 11.7563L12.1186 14.6377ZM12.1186 13.9306L19.375 6.67419L21.3194 8.61855L12.1186 17.8193L7.29291 12.9936L9.23726 11.0492L12.1186 13.9306Z" fill="white"/>
<defs>
<linearGradient id="paint0_linear" x1="0.955849" y1="24" x2="29.8086" y2="19.2841" gradientUnits="userSpaceOnUse">
<stop stop-color="#3187FF"/>
<stop offset="1" stop-color="#7AB6FF"/>
</linearGradient>
</defs>
</svg>
