<svg width="18" height="18" viewBox="0 0 18 18" fill="none" xmlns="http://www.w3.org/2000/svg">
<path d="M17.25 10.5H15.75V2.25C15.75 1.0095 14.7405 0 13.5 0H4.5C3.2595 0 2.25 1.0095 2.25 2.25V10.5H0.75C0.336 10.5 0 10.836 0 11.25C0 11.664 0.336 12 0.75 12H3V17.25C3 17.664 3.336 18 3.75 18C4.164 18 4.5 17.664 4.5 17.25V12H8.25V17.25C8.25 17.664 8.586 18 9 18C9.414 18 9.75 17.664 9.75 17.25V12H13.5V17.25C13.5 17.664 13.836 18 14.25 18C14.664 18 15 17.664 15 17.25V12H17.25C17.664 12 18 11.664 18 11.25C18 10.836 17.664 10.5 17.25 10.5Z" fill="#E48D37"/>
</svg>
